<svg width="29" height="27" viewBox="0 0 29 27" fill="none" xmlns="http://www.w3.org/2000/svg">
<g clip-path="url(#clip0_28_1438)">
<path d="M23.4278 4.63165H5.53418V19.7832H23.4278V4.63165Z" fill="white"/>
<path fill-rule="evenodd" clip-rule="evenodd" d="M28.9712 13.5C28.9712 20.946 22.488 26.982 14.4905 26.982C6.493 26.982 0.00976562 20.946 0.00976562 13.5C0.00976562 6.05406 6.493 0.0179443 14.4905 0.0179443C22.488 0.0179443 28.9712 6.05406 28.9712 13.5ZM10.3871 18.8652H7.57676C6.98623 18.8652 6.69454 18.8652 6.51668 18.7592C6.32457 18.6433 6.20719 18.4512 6.19296 18.2392C6.18227 18.0439 6.32814 17.8053 6.61984 17.3284L13.5588 5.94098C13.8541 5.45742 14.0035 5.21564 14.192 5.12622C14.3948 5.03018 14.6367 5.03018 14.8395 5.12622C15.028 5.21564 15.1774 5.45742 15.4727 5.94098L16.8992 8.25939L16.9064 8.27122C17.2254 8.78998 17.3871 9.05305 17.4577 9.32916C17.5359 9.63055 17.5359 9.9485 17.4577 10.2499C17.3865 10.5281 17.2265 10.7931 16.9027 11.3197L13.2578 17.3184L13.2484 17.3338C12.9274 17.8568 12.7647 18.1219 12.5393 18.3219C12.2938 18.5406 11.9985 18.6995 11.6748 18.789C11.3796 18.8652 11.0487 18.8652 10.3871 18.8652ZM17.484 18.8652H21.5108C22.1049 18.8652 22.4038 18.8652 22.5818 18.756C22.7738 18.64 22.8947 18.4445 22.9055 18.2327C22.9157 18.0437 22.773 17.8144 22.4934 17.3652C22.4838 17.3499 22.4742 17.3344 22.4643 17.3185L20.4472 14.1059L20.4243 14.0697C20.1409 13.6234 19.9978 13.3981 19.814 13.311C19.6114 13.2149 19.3729 13.2149 19.1702 13.311C18.9852 13.4004 18.8358 13.6356 18.5405 14.1092L16.5306 17.3218L16.5237 17.3329C16.2295 17.8058 16.0825 18.0421 16.0931 18.2359C16.1073 18.448 16.2247 18.6433 16.4168 18.7592C16.5911 18.8652 16.8899 18.8652 17.484 18.8652Z" fill="#131633"/>
</g>
<defs>
<clipPath id="clip0_28_1438">
<rect width="28.9807" height="27" fill="white"/>
</clipPath>
</defs>
</svg>
