<svg width="14" height="19" viewBox="0 0 14 19" fill="none" xmlns="http://www.w3.org/2000/svg">
<path d="M13.8938 7.43425C14.1825 5.50487 12.7133 4.46767 10.7044 3.77576L11.3561 1.16215L9.76497 0.765674L9.13053 3.3104C8.71225 3.20618 8.28263 3.10786 7.85574 3.01044L8.49472 0.44894L6.90453 0.0524597L6.25242 2.66515C5.9062 2.58631 5.56632 2.50838 5.23641 2.42636L5.23822 2.41821L3.04396 1.87038L2.6207 3.56958C2.6207 3.56958 3.80121 3.84009 3.77629 3.85686C4.4207 4.01772 4.53716 4.4441 4.51767 4.78213L3.77538 7.75959C3.81979 7.77092 3.87735 7.78723 3.94079 7.8126C3.88777 7.79946 3.83112 7.78496 3.77267 7.77091L2.73217 11.9419C2.65332 12.1376 2.45348 12.4313 2.00302 12.3198C2.01889 12.3429 0.846526 12.0312 0.846526 12.0312L0.0566406 13.8523L2.12719 14.3683C2.51239 14.4649 2.88987 14.5659 3.26148 14.6611L2.60303 17.3046L4.1923 17.7011L4.84441 15.0856C5.27855 15.2035 5.70001 15.3122 6.11239 15.4146L5.46255 18.0178L7.05363 18.4143L7.7121 15.7757C10.4252 16.2891 12.4654 16.082 13.3242 13.6284C14.0162 11.6528 13.2897 10.5132 11.8622 9.77009C12.9018 9.53039 13.6849 8.84663 13.8938 7.43425ZM10.2585 12.5314C9.76678 14.507 6.44003 13.439 5.36148 13.1712L6.2352 9.66903C7.31376 9.93819 10.7724 10.4711 10.2585 12.5314ZM10.7506 7.4057C10.302 9.20277 7.53309 8.28974 6.6349 8.06589L7.42705 4.88953C8.32524 5.11337 11.2178 5.53114 10.7506 7.4057Z" fill="white"/>
</svg>
