<svg width="19" height="19" viewBox="0 0 19 19" fill="none" xmlns="http://www.w3.org/2000/svg">
<path fill-rule="evenodd" clip-rule="evenodd" d="M11.6625 5.88166L5.96334 11.5732C5.88988 11.4308 5.82354 11.2824 5.76414 11.1285C5.56513 10.6114 5.46558 10.0627 5.46558 9.48322C5.46558 8.90329 5.56513 8.35486 5.76414 7.83772C5.96334 7.32036 6.23937 6.87154 6.59223 6.49059C6.94519 6.10986 7.3693 5.80874 7.86427 5.58698C8.35963 5.36544 8.90302 5.25457 9.49485 5.25457C10.0869 5.25457 10.6333 5.3682 11.1338 5.59572C11.32 5.68014 11.4962 5.77538 11.6625 5.88166ZM11.1596 13.4133C10.6644 13.635 10.121 13.7457 9.52913 13.7457C8.93711 13.7457 8.39072 13.632 7.88988 13.4048C7.70397 13.3201 7.52778 13.2249 7.36169 13.1184L13.0605 7.42731C13.1341 7.56948 13.2004 7.71763 13.2598 7.87176C13.4588 8.3889 13.5584 8.93755 13.5584 9.51726C13.5584 10.0969 13.4588 10.6453 13.2598 11.1628C13.0605 11.6799 12.7846 12.1287 12.4316 12.5094C12.0788 12.8902 11.6549 13.1915 11.1596 13.4133ZM12.0219 15.178C12.7846 14.8483 13.4448 14.4023 14.0025 13.8393C14.5602 13.2768 14.9926 12.6203 15.2999 11.8701C15.6074 11.12 15.7611 10.3243 15.7611 9.48322C15.7611 8.64195 15.6074 7.84623 15.2999 7.09583C15.1177 6.65093 14.8933 6.24007 14.627 5.86302L18.3337 2.16139L16.8609 0.690491L13.1429 4.40339C12.8091 4.17612 12.4467 3.97966 12.056 3.8138C11.2932 3.4899 10.451 3.32772 9.52913 3.32772C8.60697 3.32772 7.76481 3.49265 7.00209 3.82231C6.23937 4.15196 5.57909 4.59801 5.02144 5.1607C4.4637 5.72339 4.03112 6.37993 3.7238 7.13011C3.41647 7.88028 3.26281 8.676 3.26281 9.51727C3.26281 10.3583 3.41647 11.1538 3.7238 11.9042C3.90624 12.3493 4.13057 12.7602 4.39688 13.1374L0.69043 16.8387L2.16331 18.3095L5.88112 14.5968C6.21492 14.8241 6.57731 15.0207 6.96801 15.1864C7.73073 15.5103 8.57288 15.6724 9.49485 15.6724C10.4169 15.6724 11.2592 15.5073 12.0219 15.178Z" fill="white"/>
</svg>
