<svg width="29" height="29" viewBox="0 0 29 29" fill="none" xmlns="http://www.w3.org/2000/svg">
<circle cx="14.5" cy="14.5" r="14.5" fill="#131633"/>
<path d="M17.3912 24.0036C17.34 23.9524 17.2888 23.9012 17.2376 23.9012C16.0598 23.6452 14.882 23.2357 13.8578 22.6213C11.707 21.3414 10.2731 19.4471 10.2219 17.2456C10.2219 16.4265 10.3755 15.6073 10.734 14.8394C10.9388 14.3274 12.1679 12.5867 12.3215 12.2795C13.1408 10.9996 12.8848 11.102 11.707 9.51486L10.0683 7.1086L8.99287 5.47029C8.37835 5.87987 7.76383 6.39184 7.20053 6.90381C6.07391 8.03014 5.20335 9.46366 4.69125 10.9996C4.17916 12.5355 4.02553 14.1738 4.23037 15.7609C4.4352 17.348 5.04972 18.8839 5.97149 20.215C6.89327 21.5462 8.1223 22.6725 9.50496 23.4405C5.86908 20.7782 4.17916 16.7336 5.56182 12.6891C5.92028 11.6139 6.48359 10.59 7.20053 9.66845L8.37835 11.4092C8.42956 11.5115 8.48077 11.6139 8.48077 11.7675C8.48077 11.8699 8.42956 12.0235 8.37835 12.1259C7.81504 12.8427 7.35416 13.6106 7.0469 14.481C5.51061 18.9351 9.65859 23.5429 14.0114 24.3108C14.8308 24.4644 16.3671 24.618 17.1864 24.4132C17.2376 24.4132 17.2888 24.362 17.2888 24.362C17.34 24.3108 17.34 24.3108 17.34 24.2596C17.34 24.2084 17.34 24.1572 17.34 24.106C17.4425 24.106 17.4425 24.0548 17.3912 24.0036Z" fill="white"/>
<path d="M11.8608 4.65113C11.912 4.70233 11.9632 4.75353 12.0144 4.75353C13.1922 5.00951 14.3701 5.41909 15.3942 6.03345C17.5451 7.31338 18.9789 9.20767 19.0301 11.4091C19.0301 12.2283 18.8765 13.0475 18.518 13.8154C18.3132 14.3274 17.0842 16.0681 16.9305 16.3753C16.1112 17.6552 16.3672 17.5528 17.5451 19.1399L19.1838 21.5462L20.3104 23.1845C20.9249 22.7749 21.5394 22.2629 22.1027 21.751C23.2293 20.6246 24.0999 19.1911 24.612 17.6552C25.1241 16.1193 25.2777 14.481 25.0729 12.8939C24.868 11.3068 24.2535 9.77084 23.3317 8.43972C22.41 7.10859 21.1809 5.98226 19.7983 5.2143C23.4342 7.87655 25.1241 11.9211 23.6902 15.9657C23.3317 17.0408 22.7684 18.0648 22.0515 18.9863L20.8737 17.2456C20.8225 17.1432 20.7713 17.0408 20.7713 16.8872C20.7713 16.7848 20.8225 16.6312 20.8737 16.5289C21.437 15.8121 21.8979 15.0441 22.2051 14.1738C23.7414 9.71964 19.5934 5.11191 15.2406 4.34395C14.4213 4.19036 12.885 4.03677 12.0656 4.24156C12.0144 4.24156 11.9632 4.29275 11.9632 4.29275C11.8608 4.29275 11.8096 4.34395 11.8096 4.39515C11.8096 4.44635 11.8096 4.49754 11.8096 4.54874C11.8096 4.54874 11.8096 4.59994 11.8608 4.65113Z" fill="white"/>
</svg>
