<svg width="19" height="20" viewBox="0 0 19 20" fill="none" xmlns="http://www.w3.org/2000/svg">
<g clip-path="url(#clip0_28_1425)">
<path d="M4.6875 1.18706L9.76732 7.13877L13.1771 5.13304C13.1771 5.13304 9.06327 -0.368404 7.96626 0.0204631C6.93474 0.413423 4.6875 1.18706 4.6875 1.18706Z" fill="white"/>
<path d="M13.3037 5.13303C13.3037 5.13303 14.0773 3.77405 14.4621 1.96071C14.4621 1.96071 18.3221 3.51208 16.8403 7.39664L13.3037 5.13303Z" fill="white"/>
<path d="M16.8408 7.40074L17.1642 11.4777L18.6419 11.2853C18.6419 11.2853 19.0266 11.1543 18.9652 10.4462C18.8998 9.66845 18.7729 8.05158 18.7729 8.05158C18.7729 8.05158 18.8384 7.66271 17.9378 7.53582C16.8408 7.33525 16.8408 7.40074 16.8408 7.40074Z" fill="white"/>
<path d="M17.1597 11.4777L14.2002 13.8723L15.551 16.5248C15.551 16.5248 15.8744 17.5604 16.8363 16.3938C17.7368 15.2272 18.1216 15.0348 18.0561 14.3226C17.9988 13.6103 17.8023 11.928 17.1597 11.4777Z" fill="white"/>
<path d="M14.1389 13.8682L10.0865 12.0549L6.54982 19.2387C6.54982 19.2387 6.29194 19.7544 7.19248 19.8199C8.09301 19.9509 9.5707 20.2743 10.3443 19.4965C11.118 18.7884 14.1389 13.8682 14.1389 13.8682Z" fill="white"/>
<path d="M10.0863 11.9935L9.70151 7.20425L0.954061 7.7896C0.954061 7.7896 0.438302 7.8551 0.503795 8.82522C0.569288 10.1187 0.696182 11.5432 0.696182 11.5432C0.696182 11.5432 0.630688 12.1244 1.7891 12.1899C2.94751 12.2513 9.95939 12.2513 10.0863 11.9935Z" fill="white"/>
</g>
<defs>
<clipPath id="clip0_28_1425">
<rect width="18.4732" height="20" fill="white" transform="translate(0.5)"/>
</clipPath>
</defs>
</svg>
