<svg width="15" height="14" viewBox="0 0 15 14" fill="none" xmlns="http://www.w3.org/2000/svg">
<g clip-path="url(#clip0_9_1068)">
<path d="M14.6753 10.3569L12.2817 12.8855C12.2296 12.9405 12.1667 12.9843 12.0967 13.0142C12.0268 13.0441 11.9513 13.0596 11.875 13.0595H0.527887C0.473744 13.0595 0.42078 13.0439 0.375504 13.0147C0.330228 12.9854 0.294611 12.9438 0.27303 12.8949C0.251449 12.846 0.244843 12.7919 0.254025 12.7394C0.263207 12.6868 0.287776 12.638 0.324714 12.599L2.72018 10.0704C2.77208 10.0157 2.83483 9.97196 2.90456 9.94204C2.97431 9.91211 3.04953 9.8966 3.12561 9.89647H14.4721C14.5263 9.89647 14.5792 9.91206 14.6245 9.9413C14.6697 9.97055 14.7054 10.0122 14.727 10.0611C14.7486 10.11 14.7552 10.1641 14.746 10.2166C14.7368 10.2692 14.7122 10.318 14.6753 10.3569ZM12.2817 5.26505C12.2296 5.21013 12.1667 5.16633 12.0967 5.1364C12.0268 5.10648 11.9513 5.09105 11.875 5.0911H0.527887C0.473744 5.0911 0.42078 5.10667 0.375504 5.13592C0.330228 5.16517 0.294611 5.2068 0.27303 5.2557C0.251449 5.30462 0.244843 5.35868 0.254025 5.41124C0.263207 5.46379 0.287776 5.51256 0.324714 5.55156L2.72018 8.08017C2.77208 8.13495 2.83483 8.17864 2.90456 8.20857C2.97431 8.23849 3.04953 8.25401 3.12561 8.25412H14.4721C14.5263 8.25412 14.5792 8.23855 14.6245 8.2093C14.6697 8.18005 14.7054 8.13842 14.727 8.08952C14.7486 8.0406 14.7552 7.98654 14.746 7.93398C14.7368 7.88143 14.7122 7.83266 14.6753 7.79366L12.2817 5.26505ZM0.527887 3.44875H11.875C11.9513 3.44878 12.0268 3.43336 12.0967 3.40343C12.1667 3.3735 12.2296 3.3297 12.2817 3.27478L14.6753 0.746171C14.7122 0.707179 14.7368 0.658408 14.746 0.605849C14.7552 0.553291 14.7486 0.499236 14.727 0.450325C14.7054 0.401415 14.6697 0.359779 14.6245 0.330533C14.5792 0.301288 14.5263 0.285707 14.4721 0.285706H3.12561C3.04953 0.285833 2.97431 0.301339 2.90456 0.331263C2.83483 0.361187 2.77208 0.404892 2.72018 0.459673L0.325332 2.98828C0.288429 3.02723 0.263871 3.07596 0.254668 3.12844C0.245466 3.18095 0.252019 3.23496 0.273524 3.28385C0.295029 3.33274 0.330551 3.37437 0.375734 3.40366C0.420918 3.43295 0.473797 3.44862 0.527887 3.44875Z" fill="white"/>
</g>
<defs>
<clipPath id="clip0_9_1068">
<rect width="14.5" height="12.7738" fill="white" transform="translate(0.25 0.285706)"/>
</clipPath>
</defs>
</svg>
