<svg width="13" height="13" viewBox="0 0 13 13" fill="none" xmlns="http://www.w3.org/2000/svg">
<path fill-rule="evenodd" clip-rule="evenodd" d="M6.50001 0C2.91016 0 0 2.91016 0 6.5C0 10.0898 2.91015 13 6.50001 13C10.0899 13 13 10.0898 13 6.5C13 2.91016 10.0898 0 6.50001 0ZM0.932384 6.5C0.932384 3.4251 3.4251 0.932378 6.50001 0.932378C9.57492 0.932378 12.0676 3.4251 12.0676 6.5C12.0676 9.57486 9.57492 12.0677 6.50001 12.0677C3.4251 12.0677 0.932384 9.57486 0.932384 6.5ZM6.99065 3.55581C6.99065 3.28479 6.77094 3.06508 6.49992 3.06508C6.2289 3.06508 6.0092 3.28479 6.0092 3.55581V6.50017C6.0092 6.63032 6.0609 6.75514 6.15293 6.84718L8.11584 8.81008C8.30748 9.00169 8.61819 9.00169 8.80983 8.81008C9.00145 8.61845 9.00145 8.30773 8.80983 8.11609L6.99065 6.29691V3.55581Z" fill="#797979"/>
</svg>
