<?xml version="1.0" encoding="UTF-8"?>
<!DOCTYPE svg PUBLIC "-//W3C//DTD SVG 1.1//EN" "http://www.w3.org/Graphics/SVG/1.1/DTD/svg11.dtd">
<!-- Creator: CorelDRAW 2021 (64-Bit) -->
<svg xmlns="http://www.w3.org/2000/svg" xml:space="preserve" width="1.4732mm" height="1.4732mm" version="1.1" style="shape-rendering:geometricPrecision; text-rendering:geometricPrecision; image-rendering:optimizeQuality; fill-rule:evenodd; clip-rule:evenodd"
viewBox="0 0 147.32 147.32"
 xmlns:xlink="http://www.w3.org/1999/xlink"
 xmlns:xodm="http://www.corel.com/coreldraw/odm/2003">
 <defs>
  <style type="text/css">
   <![CDATA[
    .fil0 {fill:white}
   ]]>
  </style>
 </defs>
 <g id="Layer_x0020_1">
  <metadata id="CorelCorpID_0Corel-Layer"/>
  <path class="fil0" d="M37.93 89.06c0,-4.13 -0.03,-5.91 1.08,-10 1.55,-5.69 4.31,-10.19 8.09,-14.53 0.26,-0.29 0.67,-0.95 1.03,-1.08 0,3.7 2.52,9.78 4.72,13.02 3.79,5.57 9.39,10.28 15.3,13.52 2.53,1.37 6.74,4.2 8.89,6.19 0.28,0.27 0.41,0.45 0.73,0.7 0.91,0.71 1.88,1.87 2.65,2.79 3.24,3.86 5.51,8.51 5.51,13.89 0,0.82 0.06,2.86 -0.1,3.56 -0.12,0.58 -0.05,0.33 -0.63,0.58 -1.99,0.87 -3,1.38 -5.34,1.98 -9.65,2.48 -19.08,1 -27.3,-4.46 -1.64,-1.08 -3.13,-2.3 -4.52,-3.68 -3.2,-3.2 -4.8,-5.33 -6.86,-9.44 -1.58,-3.15 -3.25,-8.37 -3.25,-13.04zm33.92 42.57l-1.47 0c-3.35,-0.05 -6.67,-0.47 -9.82,-1.24 -3.62,-0.89 -6.41,-2.08 -9.55,-3.64 -0.34,-0.16 -0.52,-0.29 -0.85,-0.48 -3.17,-1.75 -6.53,-4.16 -9.16,-6.69l-1.88 -2c-2.17,-2.35 -4.02,-4.78 -5.62,-7.57 -0.64,-1.12 -1.19,-2.27 -1.78,-3.43 -0.58,-1.16 -1.08,-2.53 -1.54,-3.79 -0.47,-1.3 -0.87,-2.62 -1.21,-4 -1.15,-4.57 -1.24,-7.09 -1.24,-11.84 0,-2.06 0.3,-4.51 0.63,-6.23 0.46,-2.35 0.69,-3.24 1.38,-5.5 1.9,-6.24 4.72,-10.57 8.61,-15.34l6.13 -7.5c0.5,-0.63 0.98,-1.2 1.51,-1.82l6.16 -7.58c3.09,-3.66 6.15,-7.61 9.25,-11.27l3.83 -4.7c0.27,-0.31 0.5,-0.61 0.74,-0.92l3.86 -4.69c0.27,-0.29 0.52,-0.63 1.02,-0.63l0.04 0 0.11 0c0.63,0 0.93,0.03 1.41,0.66l10.92 13.35c0.27,0.34 0.47,0.62 0.74,0.93 0.31,0.34 0.51,0.61 0.8,0.98 0.28,0.35 0.52,0.61 0.8,0.96l3.1 3.79c2.27,2.92 5.31,6.48 7.78,9.51 3.03,3.73 6.42,7.74 9.35,11.49l0.74 1.03c2.86,4.22 4.57,7.47 6.16,12.8 2.35,7.87 2.29,16.92 -0.25,24.89 -0.11,0.36 -0.17,0.65 -0.3,1.03 -1.43,4.1 -3.02,7.11 -5.39,10.68 -2.09,3.16 -4.25,5.32 -6.93,7.81l-2.91 2.42 -7.51 4.47c-5.2,2.61 -11.42,3.96 -17.66,4.06zm-12.97 -71.95c0,-4.98 1.97,-10.89 4.23,-14.39 1.82,-2.81 3.75,-4.78 5.75,-7.34 0.23,-0.29 0.58,-0.79 0.86,-1.02 1.96,-1.57 3.39,0.7 4.45,2.03 0.28,0.37 0.55,0.66 0.85,1.03 0.31,0.4 0.52,0.67 0.85,1.04 2.57,2.94 5.83,7.35 8.42,10.31l2.54 3.12c2.4,3.03 5.19,6.22 7.59,9.26l1.69 2.08c9.33,10.68 11.02,26.34 3.49,38.93 -0.29,0.48 -2.46,3.99 -3.14,4.17 0,-2.62 -2.09,-7.68 -3.36,-10.05 -0.89,-1.66 -2.15,-3.46 -3.29,-4.91l-1.84 -2.16c-0.27,-0.35 -0.37,-0.45 -0.68,-0.75l-2 -2c-1.93,-1.7 -3.93,-3.33 -6.06,-4.8 -5.05,-3.5 -7.05,-3.96 -12.24,-8.16 -2.38,-1.92 -4.71,-4.82 -6.08,-7.56 -1.21,-2.42 -2.03,-5.24 -2.03,-8.83z"/>
 </g>
</svg>
